<svg viewBox="0 0 24 24" xmlns="http://www.w3.org/2000/svg">
  <defs>
    <linearGradient id="tiktokGradient" x1="0%" y1="0%" x2="100%" y2="100%">
      <stop offset="0%" stop-color="#25F4EE"/>
      <stop offset="100%" stop-color="#FE2C55"/>
    </linearGradient>
  </defs>
  <path fill="url(#tiktokGradient)" d="M17.5 2.5c-1.23 0-2.3-.4-3.15-1.07v5.95c.6.24 1.22.37 1.85.37.5 0 .98-.06 1.43-.18V2.5zM12.35 2.08c-.04 0-.08 0-.12.01C10.23 2.29 8.66 3.42 7.9 5.03c-.24.55-.36 1.13-.36 1.71 0 2.04 1.63 3.69 3.65 3.69.62 0 1.2-.16 1.72-.44V7.27c-.5.34-1.08.54-1.72.54-.72 0-1.4-.25-1.94-.67-.24-.19-.44-.4-.62-.65.02-.22.04-.45.04-.68 0-1.1.4-2.13 1.08-2.91.77-.87 1.87-1.4 3.09-1.47V2.08zM19.5 5.5c-.86 0-1.64-.31-2.26-.82v6.15c0 1.83-1.49 3.32-3.32 3.32-1.33 0-2.47-.81-2.94-1.97a3.47 3.47 0 0 1-.13-1.23c0-.02 0-.04 0-.06-.01-.08-.02-.15-.02-.23 0-.12.01-.24.03-.36 0-.03 0-.07.01-.1.01-.06.01-.13.02-.2.03-.28.09-.55.18-.81.09-.26.22-.5.38-.72.15-.21.33-.41.54-.59a3.38 3.38 0 0 1 1.28-.63c.45-.12.92-.18 1.4-.18V11.2a1.91 1.91 0 0 0 .72.12c1.03 0 1.88-.84 1.88-1.88V5.5c.5.33 1.08.53 1.7.53.02 0 .05 0 .07 0 0-1.2-.97-2.17-2.17-2.17-.1 0-.2 0-.29.01v2.03a.7.7 0 0 0 .3-.07c.15-.08.28-.2.3-.37.02-.21-.14-.39-.35-.41a.35.35 0 0 0-.22.06v2.87zM12.35 20c-3 0-5.45-2.43-5.45-5.43s2.44-5.43 5.45-5.43c.72 0 1.4.15 2.02.42v-2.95c-.74-.33-1.56-.51-2.39-.51-3.68 0-6.67 2.98-6.67 6.67S8.67 20 12.35 20c1.82 0 3.45-.8 4.6-2.07v-2.77c-.93.9-2.17 1.45-3.55 1.45z"/>
</svg>
