<svg viewBox="0 0 100 100" xmlns="http://www.w3.org/2000/svg">
  <defs>
    <linearGradient id="tt" x1="0%" y1="0%" x2="100%" y2="100%">
      <stop offset="0%" stop-color="#25F4EE"/>
      <stop offset="100%" stop-color="#FE2C55"/>
    </linearGradient>
  </defs>
  <g fill="url(#tt)">
    <path d="M71 18c-4.3-3-9.6-4.8-15.3-4.8 0 8.3-6.7 15-15 15v-14.6c-2.5 0-4.9-.5-7.1-1.4v32.8c0 8.3-6.7 15-15 15-8.3 0-15-6.7-15-15 0-8.2 6.6-14.9 14.8-15v-14.5c-24.6 0-44.6 20-44.6 44.6 0 24.6 20 44.6 44.6 44.6s44.6-20 44.6-44.6v-21.8c8.9 6.6 20 10.5 32 10.5v-14.5c-8.3 0-15.9-3.2-21.4-8.4z"/>
  </g>
</svg>
